Coordinates
version=1
nRows=12
nColumns=24
inDegrees=yes

Units are S.I. units (second, meters, Newtons, ...)
Angles are in degrees.

endheader
time	pelvis_tilt	pelvis_list	pelvis_rotation	pelvis_tx	pelvis_ty	pelvis_tz	hip_flexion_r	hip_adduction_r	hip_rotation_r	knee_angle_r	ankle_angle_r	subtalar_angle_r	mtp_angle_r	hip_flexion_l	hip_adduction_l	hip_rotation_l	knee_angle_l	ankle_angle_l	subtalar_angle_l	mtp_angle_l	lumbar_extension	lumbar_bending	lumbar_rotation
      0.50800000	     -4.77645294	      2.14796107	      3.86760014	     -0.75832909	      1.01893942	      0.29202067	     26.14255625	     -0.08777338	     -6.80246231	      0.60741770	      4.09659577	      0.42977965	      6.40827374	     -4.45347156	      7.47443250	      5.32947138	    -15.78980593	     10.96140482	     -7.56828614	     -4.45702529	     -3.52540159	     -4.96255372	     -4.20517799
      0.51216667	     -4.71155435	      2.04975195	      3.94476552	     -0.75262948	      1.01875386	      0.29202284	     26.04884187	      0.07935938	     -6.65969765	      0.19339274	      4.24666267	      0.20117671	      6.44697513	     -4.51586255	      7.33029050	      5.25218358	    -16.47205656	     10.99163093	     -7.30327918	     -4.43534440	     -3.55838434	     -4.84876591	     -4.26345932
      0.51633333	     -4.68778742	      1.94180608	      4.02883771	     -0.74689601	      1.01851958	      0.29201957	     26.00024371	      0.25094857	     -6.50711853	     -0.26400901	      4.30164454	     -0.13159419	      6.50519923	     -4.50459243	      7.17662655	      5.16339896	    -17.21055038	     11.00453516	     -7.02221373	     -4.38149725	     -3.52826840	     -4.72457719	     -4.33005883
      0.52050000	     -4.61191726	      1.82632163	      4.11067824	     -0.74112878	      1.01839183	      0.29201247	     25.88311688	      0.43334753	     -6.32558998	     -0.73187775	      4.31127141	     -0.53403062	      6.57998588	     -4.53409378	      7.00906213	      5.05402015	    -17.97594940	     10.97066705	     -6.74829798	     -4.29605050	     -3.56289179	     -4.58623697	     -4.39579317
      0.52466667	     -4.54536106	      1.69357471	      4.19507719	     -0.73531163	      1.01826640	      0.29200450	     25.76462642	      0.63201173	     -6.11637049	     -1.20463615	      4.23767777	     -1.02009066	      6.67388850	     -4.53025441	      6.81850763	      4.91852840	    -18.78080676	     10.91407256	     -6.45206375	     -4.17011265	     -3.57391247	     -4.42660963	     -4.46396614
      0.52883333	     -4.43912763	      1.58455970	      4.28104384	     -0.72950376	      1.01822477	      0.29201513	     25.59584809	      0.81087675	     -5.87441944	     -1.67750448	      4.04832179	     -1.62190937	      6.82054708	     -4.54871808	      6.64498009	      4.76243353	    -19.61944100	     10.84157866	     -6.14242474	     -3.94802806	     -3.64535318	     -4.31676133	     -4.53417237
      0.53300000	     -4.37446243	      1.43962360	      4.37119397	     -0.72360199	      1.01814585	      0.29200444	     25.45065164	      1.02086825	     -5.60800101	     -2.13488295	      3.89004851	     -2.19065179	      6.94817323	     -4.50968049	      6.43711828	      4.62770864	    -20.48034638	     10.66082979	     -5.88758741	     -3.73943426	     -3.63680595	     -4.12703385	     -4.60586304
      0.53716667	     -4.24804517	      1.32601658	      4.45510482	     -0.71772682	      1.01816904	      0.29203958	     25.23720882	      1.20996508	     -5.31968482	     -2.58592479	      3.57337173	     -2.91524926	      7.12005424	     -4.51168474	      6.24833110	      4.44568427	    -21.37834519	     10.51151256	     -5.57910201	     -3.42297991	     -3.72618769	     -4.00753429	     -4.67260863
      0.54133333	     -4.15226156	      1.19322516	      4.54783835	     -0.71178768	      1.01818018	      0.29206393	     25.03687622	      1.41320379	     -5.01522038	     -3.01039354	      3.23183740	     -3.64071553	      7.31994080	     -4.46230585	      6.03631339	      4.26130444	    -22.30600890	     10.27662663	     -5.29150089	     -3.02414225	     -3.75839110	     -3.85237513	     -4.73915721
      0.54550000	     -4.01188180	      1.05158949	      4.63874058	     -0.70580609	      1.01828993	      0.29210031	     24.76978955	      1.63047431	     -4.70858677	     -3.39872242	      2.82809036	     -4.37774428	      7.52297597	     -4.44567410	      5.80258526	      4.05011137	    -23.24921738	      9.96834318	     -5.00651531	     -2.57613443	     -3.84310852	     -3.67524195	     -4.80743919
      0.54966667	     -3.92210941	      0.92335117	      4.72738488	     -0.69981157	      1.01832831	      0.29217019	     24.55594037	      1.83289158	     -4.37783929	     -3.78570737	      2.38175039	     -5.13913214	      7.73527927	     -4.34671517	      5.57888484	      3.81051244	    -24.23786397	      9.60967026	     -4.71625520	     -2.06027601	     -3.85922358	     -3.53181906	     -4.86278189
      0.55383333	     -3.79625016	      0.78736425	      4.82800708	     -0.69374692	      1.01848194	      0.29220767	     24.28510447	      2.03530503	     -4.12538966	     -4.13522640	      1.87256385	     -5.81489454	      9.72249756	     -4.29287710	      5.34539920	      3.62908150	    -25.18440470	      8.97441219	     -4.63251397	      3.05591779	     -3.90582053	     -3.37058743	     -4.79878518
